<?xml version="1.0" encoding="UTF-8"?>
<svg version="1.1" xmlns="http://www.w3.org/2000/svg" width="197" height="50">
<path d="M0 0 C65.01 0 130.02 0 197 0 C197 16.5 197 33 197 50 C131.99 50 66.98 50 0 50 C0 33.5 0 17 0 0 Z " fill="#FCFCFC" transform="translate(0,0)"/>
<path d="M0 0 C1.65 0 3.3 0 5 0 C5 7.59 5 15.18 5 23 C2.33333333 23 -0.33333333 23 -3 23 C-3.804375 23.103125 -4.60875 23.20625 -5.4375 23.3125 C-8 23 -8 23 -10.3125 21 C-12.46871221 17.16673384 -12.85900011 14.30367733 -12 10 C-10.3125 7 -10.3125 7 -8 5 C-4.23692901 4.35752447 -3.24153166 4.8389789 0 7 C0 4.69 0 2.38 0 0 Z " fill="#6C6C6C" transform="translate(86,13)"/>
<path d="M0 0 C1.65 0 3.3 0 5 0 C5 2.31 5 4.62 5 7 C5.99 6.34 6.98 5.68 8 5 C10.71356611 4.66080424 12.30540772 4.56113647 14.64453125 6.0390625 C16.72851725 9.05393562 16.31576546 12.16513324 16.1875 15.6875 C16.16719727 16.7403418 16.16719727 16.7403418 16.14648438 17.81445312 C16.11120182 19.54329829 16.05739583 21.27174765 16 23 C14.02 23 12.04 23 10 23 C9.67 18.71 9.34 14.42 9 10 C8.01 10.33 7.02 10.66 6 11 C5.67 14.63 5.34 18.26 5 22 C3.35 22 1.7 22 0 22 C0 14.74 0 7.48 0 0 Z " fill="#666666" transform="translate(55,13)"/>
<path d="M0 0 C2.20703125 1.0703125 2.20703125 1.0703125 4 3 C4.390625 6.35546875 4.390625 6.35546875 4.25 10.1875 C4.21390625 11.45980469 4.1778125 12.73210938 4.140625 14.04296875 C4.07101563 15.50669922 4.07101563 15.50669922 4 17 C3.08605469 16.98582031 2.17210938 16.97164062 1.23046875 16.95703125 C-2.09578054 16.90962466 -2.09578054 16.90962466 -5.6875 17.6875 C-9 18 -9 18 -11 16.875 C-12 15 -12 15 -11.8125 12.4375 C-11 10 -11 10 -9 8 C-6.68234271 7.28072705 -4.34904126 6.6090107 -2 6 C-2.99 5.67 -3.98 5.34 -5 5 C-5.33 5.33 -5.66 5.66 -6 6 C-7.66617115 6.04063832 -9.33388095 6.042721 -11 6 C-10.6875 4.125 -10.6875 4.125 -10 2 C-6.28986601 -0.47342266 -4.38939738 -0.38503486 0 0 Z " fill="#707070" transform="translate(106,18)"/>
<path d="M0 0 C2.20703125 1.0703125 2.20703125 1.0703125 4 3 C4.390625 6.35546875 4.390625 6.35546875 4.25 10.1875 C4.21390625 11.45980469 4.1778125 12.73210938 4.140625 14.04296875 C4.07101563 15.50669922 4.07101563 15.50669922 4 17 C3.08605469 16.98582031 2.17210937 16.97164062 1.23046875 16.95703125 C-2.09578054 16.90962466 -2.09578054 16.90962466 -5.6875 17.6875 C-9 18 -9 18 -11 16.875 C-12 15 -12 15 -11.8125 12.4375 C-11 10 -11 10 -9 8 C-6.68234271 7.28072705 -4.34904126 6.6090107 -2 6 C-2.99 5.67 -3.98 5.34 -5 5 C-5.33 5.33 -5.66 5.66 -6 6 C-7.66617115 6.04063832 -9.33388095 6.042721 -11 6 C-10.6875 4.125 -10.6875 4.125 -10 2 C-6.28986601 -0.47342266 -4.38939738 -0.38503486 0 0 Z " fill="#717171" transform="translate(28,18)"/>
<path d="M0 0 C1.65 0 3.3 0 5 0 C5.33 3.3 5.66 6.6 6 10 C6.99 8.68 7.98 7.36 9 6 C12.6875 5.75 12.6875 5.75 16 6 C15.319375 6.7425 14.63875 7.485 13.9375 8.25 C11.80123612 10.69525192 11.80123612 10.69525192 12.0625 12.875 C12.371875 13.57625 12.68125 14.2775 13 15 C13.2475 15.59554688 13.495 16.19109375 13.75 16.8046875 C14.4773363 18.54609846 15.23661557 20.27408736 16 22 C13.125 22.1875 13.125 22.1875 10 22 C8 19 8 19 8 16 C7.34 16.33 6.68 16.66 6 17 C5.34444881 19.52733235 5.34444881 19.52733235 5 22 C3.35 22 1.7 22 0 22 C0 14.74 0 7.48 0 0 Z " fill="#686868" transform="translate(36,13)"/>
<path d="M0 0 C1.6484375 1.03515625 1.6484375 1.03515625 3 3 C3.2172101 5.64996326 3.28351554 8.05076558 3.1875 10.6875 C3.16719727 11.7403418 3.16719727 11.7403418 3.14648438 12.81445312 C3.11120182 14.54329829 3.05739583 16.27174765 3 18 C1.02 18 -0.96 18 -3 18 C-3.33 13.71 -3.66 9.42 -4 5 C-4.99 5.33 -5.98 5.66 -7 6 C-7.33 9.63 -7.66 13.26 -8 17 C-9.65 17 -11.3 17 -13 17 C-13 11.72 -13 6.44 -13 1 C-11.02 1 -9.04 1 -7 1 C-4.45132831 -0.27433584 -2.82594567 -0.27570202 0 0 Z " fill="#777777" transform="translate(127,18)"/>
<path d="M0 0 C3.38168267 0.82690781 6.39318844 1.96413166 9.5859375 3.34765625 C10.64554688 3.80269531 11.70515625 4.25773438 12.796875 4.7265625 C13.59351563 5.07589844 14.39015625 5.42523438 15.2109375 5.78515625 C14.59605469 6.24148437 13.98117188 6.6978125 13.34765625 7.16796875 C11.87032947 8.28609176 10.43015241 9.45440062 9.0234375 10.66015625 C4.6079729 12.42634209 1.42726165 10.57368217 -2.7890625 8.78515625 C-3.49417969 8.49511719 -4.19929687 8.20507812 -4.92578125 7.90625 C-6.55644154 7.22157114 -8.17434313 6.50662661 -9.7890625 5.78515625 C-3.90589935 -0.3008746 -3.90589935 -0.3008746 0 0 Z " fill="#777676" transform="translate(159.7890625,7.21484375)"/>
<path d="M0 0 C2.96327611 1.00058674 5.6512167 2.33887754 8.40625 3.8125 C7.219937 7.37143899 6.19578229 7.98917665 3.15625 10.0625 C2.38796875 10.60390625 1.6196875 11.1453125 0.828125 11.703125 C-2.17639913 13.07939089 -3.50589357 12.8924892 -6.59375 11.8125 C-9.40625 9.25 -9.40625 9.25 -11.59375 6.8125 C-10.21362977 5.60677404 -8.81392172 4.42344249 -7.40625 3.25 C-6.24029297 2.25806641 -6.24029297 2.25806641 -5.05078125 1.24609375 C-2.59375 -0.1875 -2.59375 -0.1875 0 0 Z " fill="#F58738" transform="translate(165.59375,21.1875)"/>
<path d="M0 0 C0.33 0.66 0.66 1.32 1 2 C-2.97285274 4.40434984 -5.89848562 6.01899163 -10.625 5.9375 C-14.04086145 4.9886496 -16.91272066 3.73188841 -20 2 C-13.94981194 -5.47376172 -7.59464294 -4.37928645 0 0 Z " fill="#F05B3C" transform="translate(187,18)"/>
<path d="M0 0 C2.72284408 -0.41889909 4.2946011 -0.44630689 6.6484375 1.04296875 C8.72905649 4.05565694 8.31564108 7.16854868 8.1875 10.6875 C8.17396484 11.38939453 8.16042969 12.09128906 8.14648438 12.81445312 C8.11120182 14.54329829 8.05739583 16.27174765 8 18 C6.02 18 4.04 18 2 18 C1.96261719 17.08476563 1.92523438 16.16953125 1.88671875 15.2265625 C1.82097656 14.03804687 1.75523438 12.84953125 1.6875 11.625 C1.62949219 10.44164062 1.57148437 9.25828125 1.51171875 8.0390625 C1.34285156 7.03617188 1.17398438 6.03328125 1 5 C0.01 4.34 -0.98 3.68 -2 3 C-1.34 2.01 -0.68 1.02 0 0 Z " fill="#767676" transform="translate(63,18)"/>
<path d="M0 0 C3.33727786 1.17255709 5.77437487 2.18868404 8 5 C8 5.66 8 6.32 8 7 C6.25 8.7265625 6.25 8.7265625 4 10.625 C3.2575 11.25664063 2.515 11.88828125 1.75 12.5390625 C1.1725 13.02117188 0.595 13.50328125 0 14 C-4.59148936 10.7035461 -4.59148936 10.7035461 -6.125 8.0625 C-6 6 -6 6 -3.625 3.3125 C-2.75875 2.549375 -1.8925 1.78625 -1 1 C-0.67 0.67 -0.34 0.34 0 0 Z " fill="#F79D3B" transform="translate(151,31)"/>
<path d="M0 0 C0.33 0 0.66 0 1 0 C1 7.26 1 14.52 1 22 C-1.95664519 23.4783226 -4.74229737 23.06032783 -8 23 C-8 22.67 -8 22.34 -8 22 C-6.35 21.67 -4.7 21.34 -3 21 C-3.680625 19.9275 -4.36125 18.855 -5.0625 17.75 C-6.99064146 14.32754891 -6.99064146 14.32754891 -7.0625 11.8125 C-6 10 -6 10 -3.5 8.125 C-0.70721157 6.1689164 -0.70721157 6.1689164 -0.1875 2.75 C-0.125625 1.8425 -0.06375 0.935 0 0 Z " fill="#F1F1F1" transform="translate(54,13)"/>
<path d="M0 0 C2.64 0 5.28 0 8 0 C7.52433594 1.05767578 7.52433594 1.05767578 7.0390625 2.13671875 C5.95461714 5.12505879 5.6035641 7.65069658 5.375 10.8125 C5.30023438 11.78832031 5.22546875 12.76414062 5.1484375 13.76953125 C5.09945312 14.50558594 5.05046875 15.24164063 5 16 C3.35 16 1.7 16 0 16 C0 10.72 0 5.44 0 0 Z " fill="#686868" transform="translate(114,19)"/>
<path d="M0 0 C2.30203125 1.08707031 3.51886909 2.23685333 5.25 4.0625 C-1.73286675 10.04038841 -1.73286675 10.04038841 -5.625 10.125 C-7.75 9.0625 -7.75 9.0625 -9.75 6.0625 C-3.73779748 0.08494994 -3.73779748 0.08494994 0 0 Z " fill="#767575" transform="translate(156.75,16.9375)"/>
<path d="M0 0 C1.65 0 3.3 0 5 0 C5 5.28 5 10.56 5 16 C3.35 16 1.7 16 0 16 C0 10.72 0 5.44 0 0 Z " fill="#686868" transform="translate(134,19)"/>
<path d="M0 0 C3.10728452 0.84155622 3.92081037 1.51672811 6 3.8125 C-1.51479821 9.04389013 -1.51479821 9.04389013 -5.15625 8.4765625 C-7.0625 7.625 -7.0625 7.625 -10 5.8125 C-4.13163065 -0.25822692 -4.13163065 -0.25822692 0 0 Z " fill="#ADADAD" transform="translate(160,7.1875)"/>
<path d="M0 0 C0.66 0.66 1.32 1.32 2 2 C-0.97 3.32 -3.94 4.64 -7 6 C-4.68143083 7.54571278 -2.49361571 8.79618552 0 10 C0 11.65 0 13.3 0 15 C-0.66 14.67 -1.32 14.34 -2 14 C-1.67 13.34 -1.34 12.68 -1 12 C-2.99054876 11.30562253 -4.99255385 10.64389782 -7 10 C-7.78375 9.67 -8.5675 9.34 -9.375 9 C-13.27358259 9 -15.195508 11.23086651 -18.03515625 13.75 C-20 15 -20 15 -22.24609375 14.6875 C-22.82488281 14.460625 -23.40367187 14.23375 -24 14 C-22.9275 13.443125 -21.855 12.88625 -20.75 12.3125 C-18.04847217 10.79356869 -16.85875827 9.82137076 -14.875 7.3125 C-12.55021649 4.445267 -11.56202172 4.56668527 -8 4 C-5.27250068 2.78100589 -2.63530159 1.40593013 0 0 Z " fill="#EAE3DF" transform="translate(175,13)"/>
<path d="M0 0 C0.72574219 0.23589844 1.45148438 0.47179687 2.19921875 0.71484375 C-0.87959821 4.5853565 -3.80151139 7.74395757 -7.80078125 10.71484375 C-9.12078125 9.39484375 -10.44078125 8.07484375 -11.80078125 6.71484375 C-10.42066102 5.50911779 -9.02095297 4.32578624 -7.61328125 3.15234375 C-6.44732422 2.16041016 -6.44732422 2.16041016 -5.2578125 1.1484375 C-2.80078125 -0.28515625 -2.80078125 -0.28515625 0 0 Z " fill="#F79C3C" transform="translate(165.80078125,21.28515625)"/>
<path d="M0 0 C1.66611905 -0.042721 3.33382885 -0.04063832 5 0 C6 1 6 1 6.125 4 C6 7 6 7 5 8 C3.33382885 8.04063832 1.66611905 8.042721 0 8 C-1.125 2.25 -1.125 2.25 0 0 Z " fill="#EEEEEE" transform="translate(80,23)"/>
<path d="M0 0 C0.515625 0.391875 1.03125 0.78375 1.5625 1.1875 C0.4178125 1.8371875 0.4178125 1.8371875 -0.75 2.5 C-3.01843768 3.92436785 -4.6574723 5.22010097 -6.4375 7.1875 C-8.4175 6.5275 -10.3975 5.8675 -12.4375 5.1875 C-9.45081839 1.49806977 -4.71352993 -1.57117664 0 0 Z " fill="#F47D3B" transform="translate(179.4375,14.8125)"/>
<path d="M0 0 C0.58265625 0.23203125 1.1653125 0.4640625 1.765625 0.703125 C0.49211192 4.52366424 -0.86075025 4.93333875 -4.296875 6.890625 C-5.21597656 7.42042969 -6.13507813 7.95023438 -7.08203125 8.49609375 C-7.79230469 8.89441406 -8.50257813 9.29273438 -9.234375 9.703125 C-9.234375 6.02240239 -8.49705757 5.50803753 -5.984375 2.953125 C-5.38109375 2.31890625 -4.7778125 1.6846875 -4.15625 1.03125 C-2.234375 -0.296875 -2.234375 -0.296875 0 0 Z " fill="#F2793E" transform="translate(172.234375,24.296875)"/>
<path d="M0 0 C0.99 0.33 1.98 0.66 3 1 C3 1.66 3 2.32 3 3 C1.25 4.7265625 1.25 4.7265625 -1 6.625 C-1.7425 7.25664063 -2.485 7.88828125 -3.25 8.5390625 C-3.8275 9.02117188 -4.405 9.50328125 -5 10 C-5.66 9.67 -6.32 9.34 -7 9 C-5.44499019 5.18315774 -2.96404505 2.80804268 0 0 Z " fill="#F58D3B" transform="translate(156,35)"/>
<path d="M0 0 C-2.66666667 2.66666667 -5.33333333 5.33333333 -8 8 C-8.66 7.67 -9.32 7.34 -10 7 C-7.6551217 1.76911763 -5.98347266 -0.48514643 0 0 Z " fill="#F26F3A" transform="translate(183,16)"/>
<path d="M0 0 C1.98 0 3.96 0 6 0 C6 1.32 6 2.64 6 4 C4.02 4 2.04 4 0 4 C0 2.68 0 1.36 0 0 Z " fill="#747474" transform="translate(133,13)"/>
<path d="M0 0 C0.66 0.33 1.32 0.66 2 1 C-0.25 3.5625 -0.25 3.5625 -3 6 C-5.3125 5.8125 -5.3125 5.8125 -7 5 C-4.88437775 2.67281553 -2.94982021 1.14186589 0 0 Z " fill="#F5964A" transform="translate(174,15)"/>
<path d="M0 0 C1.32 0 2.64 0 4 0 C3.67 1.32 3.34 2.64 3 4 C1.68 4 0.36 4 -1 4 C-0.67 2.68 -0.34 1.36 0 0 Z " fill="#EBEBEB" transform="translate(101,28)"/>
<path d="M0 0 C1.32 0 2.64 0 4 0 C3.67 1.32 3.34 2.64 3 4 C1.68 4 0.36 4 -1 4 C-0.67 2.68 -0.34 1.36 0 0 Z " fill="#EAEAEA" transform="translate(23,28)"/>
</svg>
